<mxfile host="app.diagrams.net" modified="2021-03-09T03:32:53.570Z" agent="5.0 (Macintosh; Intel Mac OS X 10_15_7) AppleWebKit/537.36 (KHTML, like Gecko) Chrome/89.0.4389.72 Safari/537.36" etag="bquv-PeiWcdP5LJ732Qv" version="14.2.7" type="github">
  <diagram id="upoMOJEKaITDKVz0QDNB" name="Page-1">
    <mxGraphModel dx="1426" dy="914" grid="1" gridSize="10" guides="1" tooltips="1" connect="1" arrows="1" fold="1" page="1" pageScale="1" pageWidth="827" pageHeight="1169" math="0" shadow="0">
      <root>
        <mxCell id="0" />
        <mxCell id="1" parent="0" />
        <mxCell id="tOuZcGrapSmCa6fvtQ8H-34" style="edgeStyle=orthogonalEdgeStyle;rounded=0;orthogonalLoop=1;jettySize=auto;html=1;entryX=0.5;entryY=0;entryDx=0;entryDy=0;" edge="1" parent="1" source="tOuZcGrapSmCa6fvtQ8H-2" target="tOuZcGrapSmCa6fvtQ8H-24">
          <mxGeometry relative="1" as="geometry">
            <Array as="points">
              <mxPoint x="425" y="270" />
              <mxPoint x="425" y="270" />
            </Array>
          </mxGeometry>
        </mxCell>
        <mxCell id="tOuZcGrapSmCa6fvtQ8H-36" style="edgeStyle=orthogonalEdgeStyle;rounded=0;orthogonalLoop=1;jettySize=auto;html=1;entryX=0.5;entryY=0;entryDx=0;entryDy=0;" edge="1" parent="1" source="tOuZcGrapSmCa6fvtQ8H-2" target="tOuZcGrapSmCa6fvtQ8H-32">
          <mxGeometry relative="1" as="geometry" />
        </mxCell>
        <mxCell id="tOuZcGrapSmCa6fvtQ8H-2" value="" style="rounded=1;whiteSpace=wrap;html=1;" vertex="1" parent="1">
          <mxGeometry x="240" y="170" width="380" height="90" as="geometry" />
        </mxCell>
        <mxCell id="tOuZcGrapSmCa6fvtQ8H-3" value="CPU Usage for Pod1" style="text;html=1;strokeColor=none;fillColor=none;align=center;verticalAlign=middle;whiteSpace=wrap;rounded=0;" vertex="1" parent="1">
          <mxGeometry x="260" y="180" width="146" height="10" as="geometry" />
        </mxCell>
        <mxCell id="tOuZcGrapSmCa6fvtQ8H-6" value="CPU Usage for Pod2" style="text;html=1;strokeColor=none;fillColor=none;align=center;verticalAlign=middle;whiteSpace=wrap;rounded=0;" vertex="1" parent="1">
          <mxGeometry x="260" y="200" width="146" height="10" as="geometry" />
        </mxCell>
        <mxCell id="tOuZcGrapSmCa6fvtQ8H-7" value="CPU Usage for Pod3" style="text;html=1;strokeColor=none;fillColor=none;align=center;verticalAlign=middle;whiteSpace=wrap;rounded=0;" vertex="1" parent="1">
          <mxGeometry x="260" y="220" width="146" height="10" as="geometry" />
        </mxCell>
        <mxCell id="tOuZcGrapSmCa6fvtQ8H-8" value="CPU Usage for Pod4" style="text;html=1;strokeColor=none;fillColor=none;align=center;verticalAlign=middle;whiteSpace=wrap;rounded=0;" vertex="1" parent="1">
          <mxGeometry x="260" y="240" width="146" height="10" as="geometry" />
        </mxCell>
        <mxCell id="tOuZcGrapSmCa6fvtQ8H-9" value="CPU Usage for Pod5" style="text;html=1;strokeColor=none;fillColor=none;align=center;verticalAlign=middle;whiteSpace=wrap;rounded=0;" vertex="1" parent="1">
          <mxGeometry x="390" y="180" width="146" height="10" as="geometry" />
        </mxCell>
        <mxCell id="tOuZcGrapSmCa6fvtQ8H-10" value="CPU Usage for Pod6" style="text;html=1;strokeColor=none;fillColor=none;align=center;verticalAlign=middle;whiteSpace=wrap;rounded=0;" vertex="1" parent="1">
          <mxGeometry x="390" y="200" width="146" height="10" as="geometry" />
        </mxCell>
        <mxCell id="tOuZcGrapSmCa6fvtQ8H-11" value="CPU Usage for Pod8" style="text;html=1;strokeColor=none;fillColor=none;align=center;verticalAlign=middle;whiteSpace=wrap;rounded=0;" vertex="1" parent="1">
          <mxGeometry x="390" y="240" width="146" height="10" as="geometry" />
        </mxCell>
        <mxCell id="tOuZcGrapSmCa6fvtQ8H-12" value="CPU Usage for Pod7" style="text;html=1;strokeColor=none;fillColor=none;align=center;verticalAlign=middle;whiteSpace=wrap;rounded=0;" vertex="1" parent="1">
          <mxGeometry x="390" y="220" width="146" height="10" as="geometry" />
        </mxCell>
        <mxCell id="tOuZcGrapSmCa6fvtQ8H-13" value="...." style="text;html=1;strokeColor=none;fillColor=none;align=center;verticalAlign=middle;whiteSpace=wrap;rounded=0;" vertex="1" parent="1">
          <mxGeometry x="540" y="205" width="40" height="20" as="geometry" />
        </mxCell>
        <mxCell id="tOuZcGrapSmCa6fvtQ8H-39" style="edgeStyle=orthogonalEdgeStyle;rounded=0;orthogonalLoop=1;jettySize=auto;html=1;entryX=0;entryY=0.5;entryDx=0;entryDy=0;" edge="1" parent="1" source="tOuZcGrapSmCa6fvtQ8H-14" target="tOuZcGrapSmCa6fvtQ8H-38">
          <mxGeometry relative="1" as="geometry" />
        </mxCell>
        <mxCell id="tOuZcGrapSmCa6fvtQ8H-14" value="Busy User" style="rounded=1;whiteSpace=wrap;html=1;" vertex="1" parent="1">
          <mxGeometry x="120" y="410" width="120" height="60" as="geometry" />
        </mxCell>
        <mxCell id="tOuZcGrapSmCa6fvtQ8H-40" style="edgeStyle=orthogonalEdgeStyle;rounded=0;orthogonalLoop=1;jettySize=auto;html=1;entryX=0.5;entryY=0;entryDx=0;entryDy=0;" edge="1" parent="1" source="tOuZcGrapSmCa6fvtQ8H-15" target="tOuZcGrapSmCa6fvtQ8H-38">
          <mxGeometry relative="1" as="geometry">
            <Array as="points">
              <mxPoint x="430" y="510" />
              <mxPoint x="430" y="510" />
            </Array>
          </mxGeometry>
        </mxCell>
        <mxCell id="tOuZcGrapSmCa6fvtQ8H-15" value="Busy System" style="rounded=1;whiteSpace=wrap;html=1;" vertex="1" parent="1">
          <mxGeometry x="365" y="410" width="120" height="60" as="geometry" />
        </mxCell>
        <mxCell id="tOuZcGrapSmCa6fvtQ8H-41" style="edgeStyle=orthogonalEdgeStyle;rounded=0;orthogonalLoop=1;jettySize=auto;html=1;entryX=1;entryY=0.5;entryDx=0;entryDy=0;" edge="1" parent="1" source="tOuZcGrapSmCa6fvtQ8H-16" target="tOuZcGrapSmCa6fvtQ8H-38">
          <mxGeometry relative="1" as="geometry" />
        </mxCell>
        <mxCell id="tOuZcGrapSmCa6fvtQ8H-16" value="Busy IQR" style="rounded=1;whiteSpace=wrap;html=1;" vertex="1" parent="1">
          <mxGeometry x="610" y="410" width="120" height="60" as="geometry" />
        </mxCell>
        <mxCell id="tOuZcGrapSmCa6fvtQ8H-21" style="edgeStyle=orthogonalEdgeStyle;rounded=0;orthogonalLoop=1;jettySize=auto;html=1;entryX=0.5;entryY=0;entryDx=0;entryDy=0;exitX=0.5;exitY=1;exitDx=0;exitDy=0;" edge="1" parent="1" source="tOuZcGrapSmCa6fvtQ8H-19" target="tOuZcGrapSmCa6fvtQ8H-14">
          <mxGeometry relative="1" as="geometry">
            <mxPoint x="180" y="360" as="sourcePoint" />
          </mxGeometry>
        </mxCell>
        <mxCell id="tOuZcGrapSmCa6fvtQ8H-19" value="" style="rounded=0;whiteSpace=wrap;html=1;" vertex="1" parent="1">
          <mxGeometry x="150" y="320" width="60" height="30" as="geometry" />
        </mxCell>
        <mxCell id="tOuZcGrapSmCa6fvtQ8H-20" style="edgeStyle=orthogonalEdgeStyle;rounded=0;orthogonalLoop=1;jettySize=auto;html=1;entryX=0.5;entryY=0;entryDx=0;entryDy=0;exitX=0;exitY=0.5;exitDx=0;exitDy=0;" edge="1" parent="1" source="tOuZcGrapSmCa6fvtQ8H-2" target="tOuZcGrapSmCa6fvtQ8H-19">
          <mxGeometry relative="1" as="geometry">
            <mxPoint x="240" y="215" as="sourcePoint" />
            <mxPoint x="180" y="380" as="targetPoint" />
          </mxGeometry>
        </mxCell>
        <mxCell id="tOuZcGrapSmCa6fvtQ8H-22" value="Sum" style="text;html=1;strokeColor=none;fillColor=none;align=center;verticalAlign=middle;whiteSpace=wrap;rounded=0;" vertex="1" parent="1">
          <mxGeometry x="160" y="325" width="40" height="20" as="geometry" />
        </mxCell>
        <mxCell id="tOuZcGrapSmCa6fvtQ8H-24" value="" style="rounded=0;whiteSpace=wrap;html=1;" vertex="1" parent="1">
          <mxGeometry x="395" y="320" width="60" height="30" as="geometry" />
        </mxCell>
        <mxCell id="tOuZcGrapSmCa6fvtQ8H-35" style="edgeStyle=orthogonalEdgeStyle;rounded=0;orthogonalLoop=1;jettySize=auto;html=1;entryX=0.5;entryY=0;entryDx=0;entryDy=0;" edge="1" parent="1" source="tOuZcGrapSmCa6fvtQ8H-25" target="tOuZcGrapSmCa6fvtQ8H-15">
          <mxGeometry relative="1" as="geometry" />
        </mxCell>
        <mxCell id="tOuZcGrapSmCa6fvtQ8H-25" value="Neural Network" style="text;html=1;strokeColor=none;fillColor=none;align=center;verticalAlign=middle;whiteSpace=wrap;rounded=0;" vertex="1" parent="1">
          <mxGeometry x="405" y="325" width="40" height="20" as="geometry" />
        </mxCell>
        <mxCell id="tOuZcGrapSmCa6fvtQ8H-37" style="edgeStyle=orthogonalEdgeStyle;rounded=0;orthogonalLoop=1;jettySize=auto;html=1;entryX=0.5;entryY=0;entryDx=0;entryDy=0;" edge="1" parent="1" source="tOuZcGrapSmCa6fvtQ8H-32" target="tOuZcGrapSmCa6fvtQ8H-16">
          <mxGeometry relative="1" as="geometry" />
        </mxCell>
        <mxCell id="tOuZcGrapSmCa6fvtQ8H-32" value="" style="rounded=0;whiteSpace=wrap;html=1;" vertex="1" parent="1">
          <mxGeometry x="640" y="320" width="60" height="30" as="geometry" />
        </mxCell>
        <mxCell id="tOuZcGrapSmCa6fvtQ8H-33" value="Neural Network" style="text;html=1;strokeColor=none;fillColor=none;align=center;verticalAlign=middle;whiteSpace=wrap;rounded=0;" vertex="1" parent="1">
          <mxGeometry x="650" y="325" width="40" height="20" as="geometry" />
        </mxCell>
        <mxCell id="tOuZcGrapSmCa6fvtQ8H-42" style="edgeStyle=orthogonalEdgeStyle;rounded=0;orthogonalLoop=1;jettySize=auto;html=1;" edge="1" parent="1" source="tOuZcGrapSmCa6fvtQ8H-38" target="tOuZcGrapSmCa6fvtQ8H-43">
          <mxGeometry relative="1" as="geometry">
            <mxPoint x="430" y="730" as="targetPoint" />
          </mxGeometry>
        </mxCell>
        <mxCell id="tOuZcGrapSmCa6fvtQ8H-38" value="Sum" style="rounded=0;whiteSpace=wrap;html=1;" vertex="1" parent="1">
          <mxGeometry x="370" y="550" width="120" height="60" as="geometry" />
        </mxCell>
        <mxCell id="tOuZcGrapSmCa6fvtQ8H-43" value="Node CPU Usage" style="rounded=1;whiteSpace=wrap;html=1;" vertex="1" parent="1">
          <mxGeometry x="370" y="700" width="120" height="60" as="geometry" />
        </mxCell>
      </root>
    </mxGraphModel>
  </diagram>
</mxfile>
